# File created by Blade
# Date/Time:  Tue Apr 07 20:22:14 2015
# Frame Rate: 120.000 fps
#------------------------------------------------------
:FULLY-SPECIFIED
:DEGREES
1241
root 0.690280 33.159043 -8.691988 14.766007 1.172077 -0.130166
Spine -15.603894 -2.834164 -0.632511
Head 8.558903 -3.090529 0.174047
LeftShoulder -18.740971 46.380315 6.051308
LeftArm 49.545813 7.495918 -84.289235
LeftForeArm -8.181846 -0.000000 16.030633
LeftHand 4.641730 -0.000000 -6.081348
LeftHandThumb1 -26.253704 0.000000 33.147579
RightShoulder -5.149504 -9.780907 -14.974217
RightArm 12.395604 -12.162223 87.575259
RightForeArm 4.628385 0.000000 13.372845
RightHand 4.228115 -0.000000 9.204288
RightHandThumb1 -24.326973 -0.000000 -32.862282
LeftUpLeg -9.665619 -6.861069 1.895662
LeftLeg -0.761485 -0.000000 0.000000
LeftFoot -1.207363 9.683690 -14.821997
LeftToeBase -13.338993 -0.000000 0.000000
RightUpLeg -8.510716 -2.649763 1.517351
RightLeg -3.057251 -0.000000 0.000000
RightFoot -2.455753 -5.555855 5.395032
RightToeBase -1.602583 -0.000000 0.000000
1242
root 0.687966 33.165636 -8.694284 14.754333 1.229249 -0.147838
Spine -15.520116 -2.849082 -0.643663
Head 8.343769 -3.068702 0.167648
LeftShoulder -18.611112 46.382555 6.045982
LeftArm 49.580109 8.795552 -83.718440
LeftForeArm -8.437762 -0.000000 16.172230
LeftHand 4.679987 0.000000 -6.287753
LeftHandThumb1 -26.253704 0.000000 33.147579
RightShoulder -5.133929 -10.004184 -14.816260
RightArm 12.453945 -12.776307 88.068758
RightForeArm 4.664930 -0.000000 13.718884
RightHand 4.288567 0.000000 9.237061
RightHandThumb1 -24.326973 -0.000000 -32.862282
LeftUpLeg -9.650001 -6.922293 1.977614
LeftLeg -0.804138 -0.000000 0.000000
LeftFoot -1.120890 9.516073 -14.956703
LeftToeBase -13.295110 -0.000000 0.000000
RightUpLeg -8.504613 -2.501749 1.513508
RightLeg -3.033449 -0.000000 0.000000
RightFoot -2.468619 -5.741916 5.364170
RightToeBase -1.508598 -0.000000 0.000000
1243
root 0.690213 33.168202 -8.705688 14.775493 1.268613 -0.131144
Spine -15.457297 -2.861062 -0.677773
Head 8.124888 -3.023364 0.137508
LeftShoulder -18.423326 46.369142 6.074013
LeftArm 49.648338 10.103845 -83.067891
LeftForeArm -8.650393 -0.000000 16.330396
LeftHand 4.700766 -0.000000 -6.271960
LeftHandThumb1 -26.253704 0.000000 33.147579
RightShoulder -5.090865 -10.165527 -14.690517
RightArm 12.509280 -13.417946 88.536898
RightForeArm 4.751839 -0.000000 13.961099
RightHand 4.298344 -0.000000 9.164940
RightHandThumb1 -24.326973 -0.000000 -32.862282
LeftUpLeg -9.703315 -6.936976 2.011090
LeftLeg -0.792169 -0.000000 0.000000
LeftFoot -1.079720 9.316333 -15.125425
LeftToeBase -13.364854 -0.000000 0.000000
RightUpLeg -8.571514 -2.451323 1.470477
RightLeg -2.959556 -0.000000 0.000000
RightFoot -2.542123 -5.736643 5.446916
RightToeBase -1.383309 -0.000000 0.000000
1244
root 0.689592 33.165457 -8.717719 14.796872 1.316517 -0.136501
Spine -15.397360 -2.891798 -0.690100
Head 7.911000 -2.962728 0.126025
LeftShoulder -18.190975 46.322869 6.155812
LeftArm 49.694074 11.415730 -82.358071
LeftForeArm -8.842521 -0.000000 16.535164
LeftHand 4.855023 0.000000 -6.520991
LeftHandThumb1 -26.253704 0.000000 33.147579
RightShoulder -5.044427 -10.327922 -14.563968
RightArm 12.609480 -14.232996 88.940011
RightForeArm 5.139302 -0.000000 14.155468
RightHand 4.356825 -0.000000 9.297434
RightHandThumb1 -24.326973 -0.000000 -32.862282
LeftUpLeg -9.757074 -6.941723 2.070178
LeftLeg -0.756843 -0.000000 0.000000
LeftFoot -1.155988 9.069259 -15.304059
LeftToeBase -13.221512 -0.000000 0.000000
RightUpLeg -8.650345 -2.544789 1.477847
RightLeg -2.859948 -0.000000 0.000000
RightFoot -2.652884 -5.583873 5.484637
RightToeBase -1.340689 -0.000000 0.000000
